<svg xmlns="http://www.w3.org/2000/svg" viewBox="5418.247 5175.6 97.854 97.75">
  <defs>
    <style>
      .cls-1 {
        fill: #a9a6ac;
      }
    </style>
  </defs>
  <g id="cr-1_35_" data-name="cr-1 (35)" transform="translate(5418.247 5175.6)">
    <g id="Group_1195" data-name="Group 1195" transform="translate(16.49 0)">
      <g id="Group_1194" data-name="Group 1194">
        <path id="Path_1803" data-name="Path 1803" class="cls-1" d="M116.682.688a1.541,1.541,0,0,0-1.157-.415A48.461,48.461,0,0,0,86.817,12a1.546,1.546,0,1,0,2.017,2.343A45.368,45.368,0,0,1,114.079,3.493V47.172L94.771,66.479a1.546,1.546,0,0,0,2.186,2.186l19.76-19.76a1.546,1.546,0,0,0,.453-1.093v-46A1.544,1.544,0,0,0,116.682.688Z" transform="translate(-86.279 -0.269)"/>
      </g>
    </g>
    <g id="Group_1197" data-name="Group 1197" transform="translate(0 15.756)">
      <g id="Group_1196" data-name="Group 1196">
        <path id="Path_1804" data-name="Path 1804" class="cls-1" d="M22.711,137.619a1.546,1.546,0,0,0-2.186,0l-7.12,7.121a45.83,45.83,0,0,1,1.3-59.457A1.546,1.546,0,1,0,12.4,83.224a48.92,48.92,0,0,0-.253,64.816,1.546,1.546,0,0,0,1.112.525h.05a1.547,1.547,0,0,0,1.093-.453l8.308-8.308A1.547,1.547,0,0,0,22.711,137.619Z" transform="translate(0 -82.708)"/>
      </g>
    </g>
    <g id="Group_1199" data-name="Group 1199" transform="translate(16.137 0)">
      <g id="Group_1198" data-name="Group 1198">
        <path id="Path_1805" data-name="Path 1805" class="cls-1" d="M152.856,15.569A48.723,48.723,0,0,0,120.413.273a1.546,1.546,0,0,0-1.645,1.543V49.093a1.535,1.535,0,0,1-.453,1.093L84.884,83.616a1.546,1.546,0,0,0,.073,2.255,48.925,48.925,0,0,0,67.9-70.3ZM149.632,81.5a45.833,45.833,0,0,1-61.374,3.112L120.5,52.372a4.607,4.607,0,0,0,1.358-3.279V3.494A45.835,45.835,0,0,1,149.632,81.5Z" transform="translate(-84.432 -0.269)"/>
      </g>
    </g>
  </g>
</svg>
